<svg aria-hidden="true" style="position:absolute;width:0;height:0" xmlns="http://www.w3.org/2000/svg" xmlns:xlink="http://www.w3.org/1999/xlink" overflow="hidden"><defs><symbol id="icon-plus" viewBox="0 0 22 28"><path d="M22 11.5v3a1.5 1.5 0 0 1-1.5 1.5H14v6.5a1.5 1.5 0 0 1-1.5 1.5h-3A1.5 1.5 0 0 1 8 22.5V16H1.5A1.5 1.5 0 0 1 0 14.5v-3A1.5 1.5 0 0 1 1.5 10H8V3.5A1.5 1.5 0 0 1 9.5 2h3A1.5 1.5 0 0 1 14 3.5V10h6.5a1.5 1.5 0 0 1 1.5 1.5z"/></symbol><symbol id="icon-menu" viewBox="0 0 24 24"><path d="M3 6h18v2.016H3V6zm0 6.984v-1.969h18v1.969H3zM3 18v-2.016h18V18H3z"/></symbol><symbol id="icon-user" viewBox="0 0 20 28"><path d="M20 21.859C20 24.14 18.5 26 16.672 26H3.328C1.5 26 0 24.141 0 21.859 0 17.75 1.016 13 5.109 13a6.979 6.979 0 0 0 9.782 0C18.985 13 20 17.75 20 21.859zM16 8c0 3.313-2.688 6-6 6s-6-2.688-6-6 2.688-6 6-6 6 2.688 6 6z"/></symbol><symbol id="icon-bar-chart" viewBox="0 0 32 28"><path d="M10 14v8H6v-8h4zm6-8v16h-4V6h4zm16 18v2H0V2h2v22h30zM22 10v12h-4V10h4zm6-6v18h-4V4h4z"/></symbol><symbol id="icon-twitter-square" viewBox="0 0 24 28"><path d="M20 9.531a6.887 6.887 0 0 1-1.891.531 3.313 3.313 0 0 0 1.453-1.828 6.547 6.547 0 0 1-2.094.797A3.253 3.253 0 0 0 15.077 8a3.28 3.28 0 0 0-3.281 3.281c0 .25.016.516.078.75a9.324 9.324 0 0 1-6.781-3.437 3.33 3.33 0 0 0-.453 1.656c0 1.141.531 2.141 1.422 2.734-.547-.016-1.062-.172-1.563-.406v.031c0 1.594 1.203 2.922 2.703 3.219-.281.078-.5.125-.797.125-.203 0-.406-.031-.609-.063a3.3 3.3 0 0 0 3.063 2.281A6.607 6.607 0 0 1 4 19.53a9.351 9.351 0 0 0 5.031 1.469c6.031 0 9.344-5 9.344-9.344 0-.141 0-.281-.016-.422A6.31 6.31 0 0 0 20 9.53zM24 6.5v15c0 2.484-2.016 4.5-4.5 4.5h-15A4.502 4.502 0 0 1 0 21.5v-15C0 4.016 2.016 2 4.5 2h15C21.984 2 24 4.016 24 6.5z"/></symbol><symbol id="icon-facebook-square" viewBox="0 0 24 28"><path d="M19.5 2C21.984 2 24 4.016 24 6.5v15c0 2.484-2.016 4.5-4.5 4.5h-2.938v-9.297h3.109l.469-3.625h-3.578v-2.312c0-1.047.281-1.75 1.797-1.75L20.265 9V5.766c-.328-.047-1.469-.141-2.781-.141-2.766 0-4.672 1.687-4.672 4.781v2.672H9.687v3.625h3.125V26H4.499a4.502 4.502 0 0 1-4.5-4.5v-15c0-2.484 2.016-4.5 4.5-4.5h15z"/></symbol><symbol id="icon-linkedin-square" viewBox="0 0 24 28"><path d="M3.703 22.094h3.609V11.25H3.703v10.844zM7.547 7.906c-.016-1.062-.781-1.875-2.016-1.875s-2.047.812-2.047 1.875c0 1.031.781 1.875 2 1.875H5.5c1.266 0 2.047-.844 2.047-1.875zm9.141 14.188h3.609v-6.219c0-3.328-1.781-4.875-4.156-4.875-1.937 0-2.797 1.078-3.266 1.828h.031V11.25H9.297s.047 1.016 0 10.844h3.609v-6.062c0-.313.016-.641.109-.875.266-.641.859-1.313 1.859-1.313 1.297 0 1.813.984 1.813 2.453v5.797zM24 6.5v15c0 2.484-2.016 4.5-4.5 4.5h-15A4.502 4.502 0 0 1 0 21.5v-15C0 4.016 2.016 2 4.5 2h15C21.984 2 24 4.016 24 6.5z"/></symbol><symbol id="icon-github" viewBox="0 0 24 28"><path d="M12 2c6.625 0 12 5.375 12 12 0 5.297-3.437 9.797-8.203 11.391-.609.109-.828-.266-.828-.578 0-.391.016-1.687.016-3.297 0-1.125-.375-1.844-.812-2.219 2.672-.297 5.484-1.313 5.484-5.922 0-1.313-.469-2.375-1.234-3.219.125-.313.531-1.531-.125-3.187-1-.313-3.297 1.234-3.297 1.234a11.28 11.28 0 0 0-6 0S6.704 6.656 5.704 6.969c-.656 1.656-.25 2.875-.125 3.187-.766.844-1.234 1.906-1.234 3.219 0 4.594 2.797 5.625 5.469 5.922-.344.313-.656.844-.766 1.609-.688.313-2.438.844-3.484-1-.656-1.141-1.844-1.234-1.844-1.234-1.172-.016-.078.734-.078.734.781.359 1.328 1.75 1.328 1.75.703 2.141 4.047 1.422 4.047 1.422 0 1 .016 1.937.016 2.234 0 .313-.219.688-.828.578C3.439 23.796.002 19.296.002 13.999c0-6.625 5.375-12 12-12zM4.547 19.234c.031-.063-.016-.141-.109-.187-.094-.031-.172-.016-.203.031-.031.063.016.141.109.187.078.047.172.031.203-.031zm.484.532c.063-.047.047-.156-.031-.25-.078-.078-.187-.109-.25-.047-.063.047-.047.156.031.25.078.078.187.109.25.047zm.469.703c.078-.063.078-.187 0-.297-.063-.109-.187-.156-.266-.094-.078.047-.078.172 0 .281s.203.156.266.109zm.656.656c.063-.063.031-.203-.063-.297-.109-.109-.25-.125-.313-.047-.078.063-.047.203.063.297.109.109.25.125.313.047zm.891.391c.031-.094-.063-.203-.203-.25-.125-.031-.266.016-.297.109s.063.203.203.234c.125.047.266 0 .297-.094zm.984.078c0-.109-.125-.187-.266-.172-.141 0-.25.078-.25.172 0 .109.109.187.266.172.141 0 .25-.078.25-.172zm.906-.156c-.016-.094-.141-.156-.281-.141-.141.031-.234.125-.219.234.016.094.141.156.281.125s.234-.125.219-.219z"/></symbol><symbol id="icon-database" viewBox="0 0 24 28"><path d="M12 12c4.703 0 9.422-.844 12-2.656V12c0 2.203-5.375 4-12 4S0 14.203 0 12V9.344C2.578 11.157 7.297 12 12 12zm0 12c4.703 0 9.422-.844 12-2.656V24c0 2.203-5.375 4-12 4S0 26.203 0 24v-2.656C2.578 23.157 7.297 24 12 24zm0-6c4.703 0 9.422-.844 12-2.656V18c0 2.203-5.375 4-12 4S0 20.203 0 18v-2.656C2.578 17.157 7.297 18 12 18zm0-18c6.625 0 12 1.797 12 4v2c0 2.203-5.375 4-12 4S0 8.203 0 6V4c0-2.203 5.375-4 12-4z"/></symbol><symbol id="icon-server" viewBox="0 0 28 28"><path d="M2 22h16v-2H2v2zm0-8h16v-2H2v2zm24.5 7a1.5 1.5 0 1 0-3.001.001A1.5 1.5 0 0 0 26.5 21zM2 6h16V4H2v2zm24.5 7a1.5 1.5 0 1 0-3.001.001A1.5 1.5 0 0 0 26.5 13zm0-8a1.5 1.5 0 1 0-3.001.001A1.5 1.5 0 0 0 26.5 5zM28 18v6H0v-6h28zm0-8v6H0v-6h28zm0-8v6H0V2h28z"/></symbol><symbol id="icon-flash_on" viewBox="0 0 24 24"><path d="M6.984 2.016h10.031l-4.031 7.969h4.031l-7.031 12v-9h-3V2.016z"/></symbol><symbol id="icon-person" viewBox="0 0 24 24"><path d="M12 14.016c2.672 0 8.016 1.313 8.016 3.984v2.016H3.985V18c0-2.672 5.344-3.984 8.016-3.984zM12 12c-2.203 0-3.984-1.781-3.984-3.984S9.797 3.985 12 3.985s3.984 1.828 3.984 4.031S14.203 12 12 12z"/></symbol><symbol id="icon-storage" viewBox="0 0 24 24"><path d="M3.984 11.016v1.969H6v-1.969H3.984zm-1.968 3V9.985h19.969v4.031H2.016zM6 6.984V5.015H3.984v1.969H6zm-3.984-3h19.969v4.031H2.016V3.984zm1.968 13.032v1.969H6v-1.969H3.984zm-1.968 3v-4.031h19.969v4.031H2.016z"/></symbol><symbol id="icon-verified_user" viewBox="0 0 24 24"><path d="M9.984 17.016L18 9l-1.406-1.406-6.609 6.563-2.578-2.578-1.406 1.406zM12 .984l9 4.031v6c0 5.531-3.844 10.734-9 12-5.156-1.266-9-6.469-9-12v-6z"/></symbol><symbol id="icon-gift" viewBox="0 0 42 32"><path d="M1.5 17a.5.5 0 0 0-.5.5v12c0 .827.673 1.5 1.5 1.5h10a.5.5 0 0 0 0-1h-10a.5.5 0 0 1-.5-.5v-12a.5.5 0 0 0-.5-.5zm39 0a.5.5 0 0 0-.5.5v12a.5.5 0 0 1-.5.5h-21a.5.5 0 0 0 0 1h21c.827 0 1.5-.673 1.5-1.5v-12a.5.5 0 0 0-.5-.5zM18 1.5a.5.5 0 0 0 .5.5h21a.5.5 0 0 1 .5.5v8.958a.5.5 0 0 0 1 0V2.5c0-.827-.673-1.5-1.5-1.5h-21a.5.5 0 0 0-.5.5zM2.5 1C1.673 1 1 1.673 1 2.5v8.958a.5.5 0 0 0 1 0V2.5a.5.5 0 0 1 .5-.5h10a.5.5 0 0 0 0-1h-10zm39 12.958H21.1c.397-.176.74-.381.984-.625a3.879 3.879 0 0 0 0-5.48c-1.464-1.464-4.016-1.464-5.48 0-.235.235-.432.563-.604.94V.5a.5.5 0 0 0-1 0v13.225c-1.703-.702-4.701-2.144-5.316-3.387-.4-.808-.461-1.722-.173-2.576s.892-1.543 1.699-1.943a.5.5 0 0 0-.443-.897c-1.047.518-1.829 1.413-2.203 2.52s-.294 2.293.224 3.339c.605 1.222 2.63 2.391 4.275 3.177H.5a.5.5 0 0 0 0 1h9.346c-.387.174-.722.375-.961.614a3.879 3.879 0 0 0 0 5.48c.732.732 1.705 1.135 2.74 1.135s2.008-.403 2.74-1.135c.248-.248.456-.599.635-1.005V31.5a.5.5 0 0 0 1 0V15.195c1.708.706 4.673 2.138 5.285 3.374.4.808.461 1.722.173 2.576a3.353 3.353 0 0 1-1.699 1.943.5.5 0 1 0 .443.896c1.047-.518 1.829-1.413 2.203-2.52s.294-2.292-.224-3.339c-.602-1.216-2.611-2.38-4.252-3.167H41.5a.5.5 0 0 0 0-1zM17.311 8.561c.543-.543 1.265-.842 2.033-.842s1.49.299 2.033.842a2.878 2.878 0 0 1 0 4.066c-.854.854-3.79 1.202-5.367 1.3.112-1.864.522-4.587 1.301-5.366zm-3.653 11.784c-1.086 1.086-2.98 1.086-4.066 0a2.878 2.878 0 0 1 0-4.066c.854-.854 3.79-1.202 5.367-1.3-.112 1.864-.522 4.587-1.301 5.366z"/></symbol><symbol id="icon-linegraph" viewBox="0 0 42 32"><path d="M39 0c-1.654 0-3 1.346-3 3 0 .888.396 1.679 1.011 2.229l-8.8 14.031A2.972 2.972 0 0 0 27 19c-.868 0-1.644.376-2.193.967l-9.073-5.745c.168-.374.266-.786.266-1.222 0-1.654-1.346-3-3-3s-3 1.346-3 3c0 .904.41 1.706 1.044 2.256L4.149 26.231A2.972 2.972 0 0 0 3 26c-1.654 0-3 1.346-3 3s1.346 3 3 3 3-1.346 3-3c0-.888-.395-1.678-1.01-2.228l6.904-10.99c.343.138.715.218 1.106.218.859 0 1.629-.367 2.176-.947l9.078 5.748A2.981 2.981 0 0 0 24 22c0 1.654 1.346 3 3 3s3-1.346 3-3c0-.863-.371-1.636-.957-2.184l8.81-14.046c.354.147.741.23 1.147.23 1.654 0 3-1.346 3-3s-1.346-3-3-3zM5 29c0 1.103-.897 2-2 2s-2-.897-2-2 .897-2 2-2 2 .897 2 2zm8-14c-1.103 0-2-.897-2-2s.897-2 2-2 2 .897 2 2-.897 2-2 2zm14 9c-1.103 0-2-.897-2-2s.897-2 2-2 2 .897 2 2-.897 2-2 2zM39 5c-1.103 0-2-.897-2-2s.897-2 2-2 2 .897 2 2-.897 2-2 2z"/></symbol><symbol id="icon-hotairballoon" viewBox="0 0 28 32"><path d="M28 9.401C28 3.075 23.421 0 14 0S0 3.075 0 9.401c0 7.275 13.173 15.668 13.733 16.021l.005.001c.011.007.023.007.035.013.072.038.148.064.227.064s.155-.026.227-.063c.011-.006.024-.006.035-.013l.005-.001C14.827 25.069 28 16.677 28 9.401zm-10 0c0 5.56-2.876 12.121-4 14.473-1.124-2.351-4-8.909-4-14.473C10 1.871 12.283 1 14 1s4 .871 4 8.401zm-9 0c0 4.797 1.979 10.141 3.331 13.236C9.589 19.74 5 14.181 5 9.401c0-4.69 1.918-7.327 5.977-8.132C9.653 2.717 9 5.411 9 9.401zm10 0c0-3.99-.652-6.684-1.977-8.132C21.082 2.074 23 4.712 23 9.401c0 4.78-4.589 10.338-7.331 13.236C17.021 19.543 19 14.198 19 9.401zm-18 0c0-3.971 1.987-6.47 6.156-7.632C5.042 3.301 4 5.833 4 9.401c0 4.203 3.135 8.792 5.838 11.973C5.98 18.306 1 13.544 1 9.401zm17.162 11.973C20.865 18.193 24 13.605 24 9.401c0-3.568-1.042-6.101-3.156-7.632C25.013 2.931 27 5.43 27 9.401c0 4.143-4.98 8.905-8.838 11.973zM11.5 27a.5.5 0 0 0-.5.5v3c0 .841.659 1.5 1.5 1.5h3c.841 0 1.5-.659 1.5-1.5v-3a.5.5 0 0 0-.5-.5h-5zm4.5 3.5c0 .294-.206.5-.5.5h-3a.479.479 0 0 1-.5-.5V28h4v2.5z"/></symbol></defs></svg>